<svg width="32" height="32" viewBox="0 0 32 32" fill="none" xmlns="http://www.w3.org/2000/svg">
<path d="M26.2223 4H5.77167C4.79367 4 4 4.775 4 5.72933V26.2683C4 27.224 4.79367 28 5.77167 28H26.2223C27.201 28 28 27.224 28 26.2683V5.72933C28 4.775 27.201 4 26.2223 4ZM11.118 24.4513H7.55667V12.9983H11.118V24.4513ZM9.33733 11.4323C9.06626 11.4323 8.79784 11.3789 8.54742 11.2751C8.297 11.1714 8.06948 11.0193 7.87786 10.8275C7.68625 10.6358 7.53429 10.4082 7.43068 10.1577C7.32707 9.90719 7.27383 9.63874 7.274 9.36767C7.274 8.82048 7.49137 8.29571 7.87829 7.90879C8.26521 7.52187 8.78998 7.3045 9.33717 7.3045C9.88435 7.3045 10.4091 7.52187 10.796 7.90879C11.183 8.29571 11.4003 8.82048 11.4003 9.36767C11.4003 9.91496 11.183 10.4399 10.7962 10.827C10.4094 11.2142 9.88463 11.4319 9.33733 11.4323ZM24.45 24.4513H20.8943V18.882C20.8943 17.5533 20.8683 15.845 19.044 15.845C17.1913 15.845 16.909 17.292 16.909 18.7857V24.4517H13.3507V12.9983H16.7657V14.5623H16.8143C17.2897 13.6623 18.451 12.7127 20.183 12.7127C23.785 12.7127 24.4503 15.084 24.4503 18.169V24.4513H24.45Z" fill="#6C778D"/>
</svg>
