<svg width="32" height="32" viewBox="0 0 32 32" fill="none" xmlns="http://www.w3.org/2000/svg">
<path d="M28 8.4051C27.0639 8.81978 26.071 9.09184 25.0543 9.21222C26.1252 8.57146 26.9266 7.56319 27.3091 6.37531C26.3025 6.97287 25.201 7.39365 24.0524 7.61942C23.5725 7.10757 22.9926 6.69972 22.3487 6.42115C21.7047 6.14259 21.0104 5.99925 20.3087 6C17.4764 6 15.1797 8.29602 15.1797 11.129C15.1797 11.5306 15.2252 11.9225 15.3128 12.2981C11.05 12.0842 7.27094 10.0421 4.74117 6.9386C4.28504 7.72139 4.04536 8.61142 4.04671 9.5174C4.04604 10.3618 4.25397 11.1934 4.65203 11.9381C5.05009 12.6829 5.62595 13.3178 6.32844 13.7864C5.51409 13.7605 4.71769 13.5406 4.00548 13.1449C4.00483 13.1663 4.00483 13.1874 4.00483 13.2095C4.00483 15.6938 5.77262 17.7668 8.11863 18.2385C7.36322 18.443 6.57119 18.473 5.80249 18.3261C6.45506 20.3634 8.34914 21.8468 10.5935 21.8883C8.7767 23.3141 6.53315 24.0875 4.22365 24.084C3.80971 24.084 3.40161 24.06 3 24.0123C5.34515 25.5191 8.07452 26.3189 10.862 26.3161C20.2961 26.3161 25.455 18.5011 25.455 11.7241C25.455 11.5021 25.4498 11.2803 25.44 11.0599C26.4447 10.3345 27.3117 9.43548 28 8.4051Z" fill="#6C778D"/>
</svg>
