<svg width="420" height="120" viewBox="0 0 420 120" fill="none" xmlns="http://www.w3.org/2000/svg">
<g filter="url(#filter0_dd_148_1454)">
<rect x="36.4509" y="0.376221" width="347.56" height="60.5667" rx="30.2833" transform="rotate(0.407185 36.4509 0.376221)" fill="white"/>
</g>
<path d="M257.144 31.0691L257.134 32.4831C257.129 33.2432 257.056 33.8839 256.917 34.4052C256.777 34.9266 256.579 35.3456 256.322 35.6622C256.065 35.9789 255.755 36.2081 255.393 36.35C255.036 36.4875 254.632 36.5547 254.182 36.5515C253.825 36.549 253.496 36.5021 253.195 36.4108C252.894 36.3195 252.624 36.1753 252.383 35.9782C252.147 35.777 251.945 35.5165 251.777 35.1968C251.61 34.8771 251.483 34.4898 251.397 34.0348C251.311 33.5798 251.27 33.0487 251.274 32.4414L251.284 31.0274C251.29 30.2673 251.362 29.6308 251.502 29.118C251.646 28.6052 251.846 28.1947 252.103 27.8865C252.36 27.5741 252.667 27.3512 253.025 27.2179C253.387 27.0845 253.791 27.0195 254.237 27.0226C254.598 27.0252 254.928 27.0721 255.229 27.1635C255.534 27.2506 255.805 27.3905 256.042 27.5833C256.278 27.7718 256.478 28.0238 256.641 28.3392C256.809 28.6504 256.936 29.0313 257.022 29.4821C257.108 29.9328 257.149 30.4618 257.144 31.0691ZM255.948 32.6658L255.961 30.8632C255.964 30.447 255.941 30.0817 255.892 29.7671C255.848 29.4483 255.78 29.176 255.688 28.9503C255.596 28.7246 255.479 28.5411 255.335 28.4C255.196 28.2588 255.033 28.1558 254.847 28.0907C254.665 28.0215 254.459 27.9861 254.23 27.9844C253.95 27.9824 253.701 28.0338 253.483 28.1384C253.266 28.2388 253.082 28.4009 252.932 28.6249C252.786 28.849 252.674 29.1433 252.595 29.508C252.516 29.8726 252.474 30.3161 252.471 30.8384L252.458 32.6409C252.455 33.0571 252.476 33.4246 252.52 33.7434C252.569 34.0622 252.641 34.3388 252.737 34.573C252.833 34.803 252.951 34.9928 253.09 35.1424C253.229 35.292 253.389 35.4036 253.571 35.4771C253.758 35.5463 253.963 35.5818 254.189 35.5834C254.477 35.5854 254.73 35.532 254.948 35.4232C255.165 35.3143 255.347 35.1436 255.493 34.9111C255.643 34.6743 255.756 34.3715 255.83 34.0026C255.905 33.6294 255.945 33.1838 255.948 32.6658ZM264.482 31.1212L264.472 32.5352C264.467 33.2953 264.394 33.936 264.255 34.4574C264.115 34.9787 263.917 35.3977 263.66 35.7144C263.403 36.0311 263.093 36.2603 262.731 36.4021C262.373 36.5397 261.969 36.6069 261.519 36.6037C261.163 36.6012 260.834 36.5542 260.533 36.4629C260.232 36.3716 259.961 36.2274 259.721 36.0304C259.484 35.8291 259.282 35.5686 259.115 35.2489C258.947 34.9293 258.82 34.5419 258.734 34.0869C258.649 33.6319 258.608 33.1008 258.612 32.4936L258.622 31.0796C258.627 30.3195 258.7 29.683 258.84 29.1701C258.983 28.6573 259.184 28.2468 259.441 27.9387C259.698 27.6262 260.005 27.4034 260.363 27.27C260.725 27.1367 261.128 27.0716 261.574 27.0748C261.935 27.0774 262.266 27.1243 262.567 27.2156C262.872 27.3027 263.143 27.4426 263.379 27.6354C263.616 27.824 263.816 28.0759 263.979 28.3913C264.147 28.7025 264.274 29.0835 264.36 29.5342C264.446 29.985 264.486 30.514 264.482 31.1212ZM263.286 32.7179L263.299 30.9153C263.302 30.4992 263.279 30.1338 263.23 29.8192C263.186 29.5004 263.118 29.2281 263.026 29.0024C262.934 28.7767 262.816 28.5933 262.673 28.4521C262.534 28.311 262.371 28.2079 262.185 28.1429C262.002 28.0737 261.797 28.0382 261.567 28.0366C261.287 28.0346 261.038 28.0859 260.821 28.1905C260.604 28.2909 260.42 28.4531 260.27 28.6771C260.124 28.9011 260.011 29.1955 259.932 29.5601C259.853 29.9247 259.812 30.3682 259.808 30.8905L259.795 32.6931C259.792 33.1092 259.813 33.4767 259.858 33.7955C259.906 34.1144 259.979 34.3909 260.075 34.6251C260.171 34.8551 260.288 35.0449 260.427 35.1946C260.566 35.3442 260.727 35.4557 260.909 35.5292C261.095 35.5985 261.301 35.6339 261.526 35.6355C261.815 35.6376 262.068 35.5842 262.285 35.4753C262.503 35.3664 262.684 35.1957 262.83 34.9632C262.981 34.7265 263.093 34.4237 263.168 34.0547C263.243 33.6816 263.282 33.236 263.286 32.7179ZM266.041 35.8842C266.042 35.6846 266.105 35.5173 266.229 35.3823C266.357 35.2431 266.54 35.1743 266.778 35.176C267.016 35.1777 267.196 35.249 267.318 35.39C267.445 35.5268 267.507 35.695 267.506 35.8946C267.504 36.0899 267.439 36.2551 267.311 36.3901C267.187 36.5251 267.006 36.5917 266.768 36.59C266.53 36.5884 266.348 36.5191 266.222 36.3823C266.1 36.2456 266.039 36.0795 266.041 35.8842ZM266.087 30.2599C266.088 30.0604 266.151 29.8931 266.275 29.7581C266.404 29.6188 266.587 29.5501 266.825 29.5518C267.062 29.5534 267.242 29.6248 267.365 29.7658C267.491 29.9026 267.553 30.0708 267.552 30.2703C267.551 30.4657 267.486 30.6308 267.357 30.7658C267.233 30.9008 267.052 30.9675 266.815 30.9658C266.577 30.9641 266.395 30.8949 266.268 30.7581C266.146 30.6213 266.086 30.4553 266.087 30.2599ZM275.203 35.6053L275.196 36.5735L269.125 36.5304L269.131 35.6832L272.194 32.3226C272.57 31.9091 272.862 31.5587 273.068 31.2714C273.278 30.9799 273.424 30.7197 273.506 30.491C273.593 30.2581 273.637 30.0206 273.639 29.7785C273.641 29.4728 273.579 29.1963 273.454 28.9491C273.332 28.6977 273.151 28.4969 272.91 28.3465C272.669 28.1962 272.377 28.1198 272.033 28.1173C271.621 28.1144 271.276 28.1926 270.999 28.352C270.726 28.5072 270.521 28.7266 270.383 29.0101C270.245 29.2937 270.175 29.6202 270.172 29.9896L268.994 29.9812C268.997 29.4589 269.115 28.982 269.348 28.5505C269.58 28.119 269.922 27.7775 270.374 27.5259C270.826 27.2701 271.381 27.1445 272.039 27.1492C272.625 27.1533 273.126 27.2609 273.54 27.472C273.955 27.6787 274.272 27.9697 274.49 28.345C274.712 28.716 274.822 29.15 274.818 29.6468C274.816 29.9185 274.767 30.1942 274.672 30.4738C274.581 30.7492 274.454 31.0243 274.29 31.2992C274.131 31.5741 273.945 31.8445 273.73 32.1106C273.52 32.3766 273.296 32.6383 273.056 32.8956L270.553 35.5723L275.203 35.6053ZM282.317 31.2479L282.307 32.662C282.301 33.4221 282.229 34.0628 282.089 34.5841C281.95 35.1055 281.751 35.5245 281.494 35.8411C281.237 36.1578 280.928 36.387 280.566 36.5289C280.208 36.6664 279.804 36.7336 279.354 36.7304C278.997 36.7279 278.669 36.681 278.368 36.5897C278.067 36.4984 277.796 36.3542 277.555 36.1571C277.319 35.9558 277.117 35.6954 276.949 35.3757C276.782 35.056 276.655 34.6687 276.569 34.2137C276.483 33.7587 276.442 33.2276 276.447 32.6203L276.457 31.2063C276.462 30.4462 276.535 29.8097 276.674 29.2969C276.818 28.7841 277.018 28.3736 277.275 28.0654C277.532 27.753 277.84 27.5301 278.197 27.3968C278.559 27.2634 278.963 27.1984 279.409 27.2015C279.77 27.2041 280.101 27.251 280.402 27.3424C280.707 27.4295 280.978 27.5694 281.214 27.7622C281.451 27.9507 281.65 28.2027 281.814 28.5181C281.981 28.8293 282.108 29.2102 282.194 29.661C282.28 30.1117 282.321 30.6407 282.317 31.2479ZM281.121 32.8446L281.133 31.0421C281.136 30.6259 281.113 30.2606 281.065 29.946C281.02 29.6272 280.952 29.3549 280.86 29.1292C280.769 28.9035 280.651 28.72 280.508 28.5789C280.368 28.4377 280.206 28.3347 280.019 28.2696C279.837 28.2004 279.631 28.165 279.402 28.1633C279.122 28.1613 278.873 28.2127 278.656 28.3173C278.439 28.4176 278.255 28.5798 278.105 28.8038C277.959 29.0279 277.846 29.3222 277.767 29.6868C277.688 30.0515 277.647 30.495 277.643 31.0173L277.63 32.8198C277.627 33.236 277.648 33.6035 277.692 33.9223C277.741 34.2411 277.813 34.5176 277.909 34.7519C278.005 34.9819 278.123 35.1717 278.262 35.3213C278.401 35.4709 278.562 35.5825 278.744 35.656C278.93 35.7252 279.136 35.7607 279.361 35.7623C279.65 35.7643 279.903 35.7109 280.12 35.6021C280.337 35.4932 280.519 35.3225 280.665 35.09C280.815 34.8532 280.928 34.5504 281.003 34.1815C281.078 33.8083 281.117 33.3627 281.121 32.8446ZM291.325 27.4136L287.388 37.4564L286.375 37.4492L290.319 27.4065L291.325 27.4136ZM301.515 31.3844L301.504 32.7984C301.499 33.5585 301.427 34.1992 301.287 34.7206C301.147 35.2419 300.949 35.6609 300.692 35.9776C300.435 36.2942 300.125 36.5235 299.764 36.6653C299.406 36.8029 299.002 36.8701 298.552 36.8669C298.195 36.8643 297.866 36.8174 297.565 36.7261C297.265 36.6348 296.994 36.4906 296.753 36.2936C296.517 36.0923 296.315 35.8318 296.147 35.5121C295.98 35.1924 295.853 34.8051 295.767 34.3501C295.681 33.8951 295.64 33.364 295.645 32.7568L295.655 31.3427C295.66 30.5826 295.732 29.9462 295.872 29.4333C296.016 28.9205 296.216 28.51 296.473 28.2018C296.73 27.8894 297.037 27.6665 297.395 27.5332C297.757 27.3999 298.161 27.3348 298.607 27.338C298.968 27.3405 299.299 27.3875 299.599 27.4788C299.905 27.5659 300.175 27.7058 300.412 27.8986C300.648 28.0871 300.848 28.3391 301.012 28.6545C301.179 28.9657 301.306 29.3467 301.392 29.7974C301.478 30.2482 301.519 30.7772 301.515 31.3844ZM300.318 32.9811L300.331 31.1785C300.334 30.7624 300.311 30.397 300.263 30.0824C300.218 29.7636 300.15 29.4913 300.058 29.2656C299.966 29.0399 299.849 28.8565 299.705 28.7153C299.566 28.5742 299.403 28.4711 299.217 28.4061C299.035 28.3368 298.829 28.3014 298.6 28.2998C298.32 28.2978 298.071 28.3491 297.854 28.4537C297.636 28.5541 297.453 28.7163 297.302 28.9403C297.156 29.1643 297.044 29.4586 296.965 29.8233C296.886 30.1879 296.844 30.6314 296.841 31.1537L296.828 32.9563C296.825 33.3724 296.846 33.7399 296.89 34.0587C296.939 34.3775 297.011 34.6541 297.107 34.8883C297.203 35.1183 297.321 35.3081 297.46 35.4578C297.599 35.6074 297.759 35.7189 297.942 35.7924C298.128 35.8617 298.334 35.8971 298.559 35.8987C298.847 35.9008 299.1 35.8474 299.318 35.7385C299.535 35.6296 299.717 35.4589 299.863 35.2264C300.013 34.9897 300.126 34.6868 300.201 34.3179C300.275 33.9448 300.315 33.4991 300.318 32.9811ZM309.282 33.6945L309.275 34.6627L302.574 34.6151L302.579 33.9208L306.778 27.5234L307.74 27.5303L306.695 29.3828L303.919 33.6564L309.282 33.6945ZM308.033 27.5324L307.967 36.8064L306.789 36.798L306.854 27.524L308.033 27.5324ZM310.411 36.1995C310.412 35.9999 310.475 35.8326 310.599 35.6976C310.728 35.5584 310.911 35.4896 311.148 35.4913C311.386 35.493 311.566 35.5644 311.688 35.7054C311.815 35.8422 311.877 36.0104 311.876 36.2099C311.874 36.4053 311.81 36.5704 311.681 36.7054C311.557 36.8404 311.376 36.9071 311.138 36.9054C310.901 36.9037 310.718 36.8344 310.592 36.6977C310.47 36.5609 310.409 36.3949 310.411 36.1995ZM310.457 30.5753C310.459 30.3757 310.521 30.2084 310.645 30.0734C310.774 29.9342 310.957 29.8654 311.195 29.8671C311.433 29.8688 311.613 29.9401 311.735 30.0811C311.861 30.2179 311.924 30.3861 311.922 30.5857C311.921 30.781 311.856 30.9462 311.728 31.0811C311.603 31.2162 311.422 31.2828 311.185 31.2811C310.947 31.2794 310.765 31.2102 310.638 31.0734C310.516 30.9366 310.456 30.7706 310.457 30.5753ZM319.573 35.9207L319.566 36.8888L313.496 36.8457L313.502 35.9985L316.564 32.6379C316.941 32.2244 317.232 31.874 317.438 31.5867C317.648 31.2952 317.794 31.0351 317.876 30.8064C317.963 30.5734 318.007 30.3359 318.009 30.0939C318.011 29.7881 317.949 29.5117 317.824 29.2645C317.702 29.0131 317.521 28.8122 317.28 28.6618C317.039 28.5115 316.747 28.4351 316.403 28.4327C315.991 28.4297 315.646 28.508 315.369 28.6674C315.096 28.8226 314.891 29.0419 314.753 29.3255C314.615 29.609 314.545 29.9355 314.542 30.3049L313.364 30.2965C313.368 29.7742 313.486 29.2973 313.718 28.8658C313.95 28.4343 314.292 28.0928 314.744 27.8412C315.196 27.5854 315.751 27.4598 316.41 27.4645C316.996 27.4687 317.496 27.5763 317.911 27.7873C318.325 27.9941 318.642 28.2851 318.86 28.6603C319.082 29.0314 319.192 29.4653 319.188 29.9621C319.186 30.2339 319.138 30.5096 319.042 30.7892C318.951 31.0645 318.824 31.3397 318.661 31.6145C318.501 31.8894 318.315 32.1599 318.101 32.4259C317.891 32.6919 317.666 32.9536 317.426 33.211L314.923 35.8876L319.573 35.9207ZM322.349 32.4943L321.408 32.2456L321.906 27.6309L326.664 27.6648L326.656 28.754L322.898 28.7272L322.6 31.2476C322.77 31.1511 322.985 31.0614 323.245 30.9783C323.509 30.8952 323.811 30.8549 324.15 30.8573C324.579 30.8604 324.963 30.9374 325.302 31.0884C325.64 31.2352 325.928 31.4453 326.163 31.7188C326.404 31.9923 326.586 32.3206 326.711 32.7037C326.835 33.0867 326.896 33.5139 326.893 33.9853C326.889 34.4312 326.825 34.8405 326.699 35.2133C326.578 35.5861 326.395 35.9118 326.151 36.1904C325.907 36.4646 325.6 36.6769 325.229 36.8272C324.863 36.9774 324.431 37.0508 323.934 37.0473C323.561 37.0446 323.206 36.9911 322.872 36.8868C322.541 36.7783 322.245 36.617 321.983 36.4028C321.726 36.1844 321.516 35.9154 321.352 35.5957C321.193 35.2718 321.094 34.8932 321.054 34.4598L322.176 34.4677C322.224 34.8163 322.324 35.11 322.475 35.3489C322.626 35.5878 322.824 35.7697 323.07 35.8946C323.32 36.0152 323.61 36.0767 323.941 36.0791C324.222 36.0811 324.47 36.034 324.688 35.9379C324.905 35.8418 325.088 35.7029 325.238 35.5214C325.388 35.3399 325.502 35.1199 325.581 34.8614C325.663 34.6029 325.706 34.3123 325.708 33.9896C325.71 33.6966 325.671 33.4246 325.593 33.1734C325.514 32.9223 325.394 32.7028 325.234 32.5148C325.078 32.3268 324.886 32.1811 324.658 32.0776C324.429 31.9698 324.166 31.9148 323.869 31.9127C323.474 31.9099 323.174 31.9608 322.97 32.0656C322.769 32.1703 322.562 32.3132 322.349 32.4943Z" fill="#7A869A"/>
<circle cx="70.2457" cy="30.9006" r="22.829" transform="rotate(0.407185 70.2457 30.9006)" fill="#F8F8F8"/>
<g filter="url(#filter1_d_148_1454)">
<circle cx="70.2457" cy="30.9006" r="19.5677" transform="rotate(0.407185 70.2457 30.9006)" fill="white"/>
</g>
<path d="M63.7735 23.7882L63.6731 37.92C63.6709 38.2202 63.9125 38.4653 64.2127 38.4674L67.4739 38.4906C67.7741 38.4927 68.0192 38.2511 68.0213 37.9509L68.1218 23.8191C68.1239 23.5189 67.8823 23.2738 67.5821 23.2717L64.3209 23.2485C64.0207 23.2464 63.7756 23.488 63.7735 23.7882Z" fill="#6658F3"/>
<path d="M72.47 23.8502L72.3696 37.982C72.3675 38.2822 72.6091 38.5273 72.9093 38.5294L76.1705 38.5526C76.4707 38.5547 76.7157 38.3131 76.7179 38.0129L76.8183 23.8811C76.8204 23.5809 76.5788 23.3358 76.2786 23.3337L73.0174 23.3105C72.7172 23.3084 72.4722 23.55 72.47 23.8502Z" fill="#6658F3"/>
<rect x="104.278" y="27.8809" width="138.837" height="6.52257" rx="3.26128" transform="rotate(0.407185 104.278 27.8809)" fill="#DFE1E6"/>
<rect x="104.278" y="27.8809" width="77.339" height="6.52257" rx="3.26128" transform="rotate(0.407185 104.278 27.8809)" fill="#6658F3"/>
<circle opacity="0.5" cx="178.331" cy="31.6687" r="10.7156" transform="rotate(0.407185 178.331 31.6687)" fill="#E0DEFD"/>
<circle cx="178.331" cy="31.6686" r="5.29958" transform="rotate(0.407185 178.331 31.6686)" fill="white" stroke="#6658F3" stroke-width="1.51417"/>
<path d="M348.823 28.7495C348.342 28.2619 347.557 28.2563 347.069 28.7371C346.582 29.2179 346.576 30.003 347.057 30.4906L348.823 28.7495ZM352.102 33.8415L351.219 34.712L352.089 35.595L352.972 34.7245L352.102 33.8415ZM357.194 30.5627C357.681 30.0819 357.687 29.2968 357.206 28.8091C356.725 28.3215 355.94 28.3159 355.453 28.7967L357.194 30.5627ZM353.425 21.9716C353.43 21.2868 352.879 20.7277 352.194 20.7228C351.509 20.7179 350.95 21.2691 350.945 21.9539L353.425 21.9716ZM350.86 33.834C350.855 34.5188 351.407 35.0779 352.091 35.0828C352.776 35.0877 353.335 34.5365 353.34 33.8517L350.86 33.834ZM345.086 37.445C344.401 37.4402 343.842 37.9914 343.837 38.6762C343.832 39.361 344.384 39.92 345.068 39.9249L345.086 37.445ZM359.045 40.0242C359.73 40.0291 360.289 39.4779 360.294 38.7931C360.299 38.1083 359.747 37.5492 359.063 37.5444L359.045 40.0242ZM347.057 30.4906L351.219 34.712L352.985 32.9709L348.823 28.7495L347.057 30.4906ZM352.972 34.7245L357.194 30.5627L355.453 28.7967L351.231 32.9585L352.972 34.7245ZM350.945 21.9539L350.86 33.834L353.34 33.8517L353.425 21.9716L350.945 21.9539ZM345.068 39.9249L359.045 40.0242L359.063 37.5444L345.086 37.445L345.068 39.9249Z" fill="#536380"/>
<defs>
<filter id="filter0_dd_148_1454" x="0.826668" y="-14.3181" width="418.369" height="133.423" filterUnits="userSpaceOnUse" color-interpolation-filters="sRGB">
<feFlood flood-opacity="0" result="BackgroundImageFix"/>
<feColorMatrix in="SourceAlpha" type="matrix" values="0 0 0 0 0 0 0 0 0 0 0 0 0 0 0 0 0 0 127 0" result="hardAlpha"/>
<feOffset dy="11.6675"/>
<feGaussianBlur stdDeviation="4.66701"/>
<feColorMatrix type="matrix" values="0 0 0 0 0 0 0 0 0 0 0 0 0 0 0 0 0 0 0.035 0"/>
<feBlend mode="normal" in2="BackgroundImageFix" result="effect1_dropShadow_148_1454"/>
<feColorMatrix in="SourceAlpha" type="matrix" values="0 0 0 0 0 0 0 0 0 0 0 0 0 0 0 0 0 0 127 0" result="hardAlpha"/>
<feOffset dy="20.4995"/>
<feGaussianBlur stdDeviation="17.7041"/>
<feColorMatrix type="matrix" values="0 0 0 0 0 0 0 0 0 0 0 0 0 0 0 0 0 0 0.0503198 0"/>
<feBlend mode="normal" in2="effect1_dropShadow_148_1454" result="effect2_dropShadow_148_1454"/>
<feBlend mode="normal" in="SourceGraphic" in2="effect2_dropShadow_148_1454" result="shape"/>
</filter>
<filter id="filter1_d_148_1454" x="44.1554" y="4.81044" width="60.8773" height="60.8771" filterUnits="userSpaceOnUse" color-interpolation-filters="sRGB">
<feFlood flood-opacity="0" result="BackgroundImageFix"/>
<feColorMatrix in="SourceAlpha" type="matrix" values="0 0 0 0 0 0 0 0 0 0 0 0 0 0 0 0 0 0 127 0" result="hardAlpha"/>
<feOffset dx="4.34838" dy="4.34838"/>
<feGaussianBlur stdDeviation="5.43547"/>
<feColorMatrix type="matrix" values="0 0 0 0 0.450382 0 0 0 0 0.475879 0 0 0 0 0.495833 0 0 0 0.2 0"/>
<feBlend mode="normal" in2="BackgroundImageFix" result="effect1_dropShadow_148_1454"/>
<feBlend mode="normal" in="SourceGraphic" in2="effect1_dropShadow_148_1454" result="shape"/>
</filter>
</defs>
</svg>
