<?xml version="1.0" standalone="no"?>
<!DOCTYPE svg PUBLIC "-//W3C//DTD SVG 20010904//EN"
 "http://www.w3.org/TR/2001/REC-SVG-20010904/DTD/svg10.dtd">
<svg version="1.0" xmlns="http://www.w3.org/2000/svg"
 width="101.000000pt" height="101.000000pt" viewBox="0 0 101.000000 101.000000"
 preserveAspectRatio="xMidYMid meet">
<metadata>
Created by potrace 1.14, written by Peter Selinger 2001-2017
</metadata>
<g transform="translate(0.000000,101.000000) scale(0.100000,-0.100000)"
fill="#000000" stroke="none">
<path d="M460 780 l0 -180 -89 0 -90 0 1 -85 c1 -47 -2 -88 -5 -92 -4 -3 -24
-7 -45 -7 -42 -1 -42 -1 -42 -56 l0 -40 48 0 48 0 0 47 -1 48 87 0 c69 0 88
-3 90 -15 2 -8 3 -88 3 -177 l-2 -163 271 0 271 0 -2 67 c-1 38 -2 78 -2 89
-1 21 -4 21 -179 20 l-178 -1 2 85 c0 47 2 89 3 93 0 5 25 8 54 7 28 -1 68 -1
88 -1 l35 1 0 89 -1 90 -83 3 c-45 2 -87 2 -92 0 -6 -2 -10 -43 -10 -92 l0
-88 -69 -4 c-38 -2 -76 -2 -84 0 -19 4 -23 34 -19 119 l4 62 81 3 82 3 5 90 5
89 178 0 c97 -1 178 2 178 5 1 3 2 43 3 89 l2 82 -273 0 -273 0 0 -180z"/>
<path d="M103 777 c-3 -5 -5 -47 -5 -93 l1 -84 -50 0 -49 0 0 -50 0 -51 51 2
c49 3 50 3 49 33 -4 69 -8 66 90 66 79 0 90 2 91 18 1 19 1 142 0 157 -1 13
-170 15 -178 2z"/>
</g>
</svg>
